<svg id="图层_1" data-name="图层 1" xmlns="http://www.w3.org/2000/svg" viewBox="0 0 120.08 99.32"><defs><style>.cls-1{stroke:#000;stroke-miterlimit:10;stroke-width:0.25px;}</style></defs><path class="cls-1" d="M2.73,20.22V16H45.39v4.2L25.78,22H22.21Zm0,90.16v-4.2l19.48-1.79h3.57l19.61,1.79v4.2Zm12,0Q15,99.55,15,88.54t.06-22.22V60.21q0-11.08-.06-22.1T14.7,16H33.55q-.25,10.83-.32,22t-.07,22.22v6q0,11.09.07,22.09t.32,22.1Z" transform="translate(-2.61 -13.6)"/><path class="cls-1" d="M87.16,112.8a61,61,0,0,1-15.54-2,43.36,43.36,0,0,1-13.12-5.6l.77-20.89H66l6.36,24.07L64.62,105l-1.4-4.84a39.46,39.46,0,0,0,11.07,5.92,38.66,38.66,0,0,0,11.21,1.47q9.68,0,15.15-4.4t5.48-12.41a19,19,0,0,0-1.4-7.64A14.76,14.76,0,0,0,100,77.4a42.85,42.85,0,0,0-9.1-5L85,69.88Q72.77,64.41,66.34,57.53T59.91,39.7a23.28,23.28,0,0,1,4.26-14.19,26.29,26.29,0,0,1,11.72-8.79,45.38,45.38,0,0,1,17-3,48.4,48.4,0,0,1,13.75,1.84,39.2,39.2,0,0,1,11.2,5.29L117,40.72H110.2L104,17.8l8.41,3.57,1,5.09a41.74,41.74,0,0,0-9.23-6,23.36,23.36,0,0,0-9.24-1.66Q86.4,18.82,81,22.9c-3.56,2.71-5.34,6.58-5.34,11.58q0,6.89,3.82,11a32.3,32.3,0,0,0,10.82,7.14l6.37,2.8a79.84,79.84,0,0,1,15.21,8.4,25.81,25.81,0,0,1,8.15,9.3,27.27,27.27,0,0,1,2.49,12.1,25,25,0,0,1-4.21,14.45,27.83,27.83,0,0,1-12.09,9.68Q98.35,112.79,87.16,112.8Z" transform="translate(-2.61 -13.6)"/></svg>